<svg width="790" height="333" viewBox="0 0 790 333" fill="none" xmlns="http://www.w3.org/2000/svg">
<path d="M390.355 3.31185C393.135 1.33006 396.865 1.33006 399.645 3.31185L456.923 44.1543C458.896 45.561 461.4 45.9978 463.732 45.3422L558.087 18.8207C562.566 17.5618 567.171 20.3757 568.093 24.9357L575.868 63.3611C576.659 67.2671 580.203 69.9958 584.181 69.7606L684.319 63.8418C691.466 63.4194 695.527 71.8766 690.729 77.1895L668.524 101.778C664.211 106.554 667.016 114.209 673.393 115.068L749.92 125.383C758.072 126.482 759.457 137.691 751.817 140.741L705.909 159.07C699.197 161.75 699.197 171.25 705.909 173.93L751.817 192.259C759.457 195.309 758.072 206.518 749.92 207.617L673.393 217.932C667.016 218.791 664.211 226.446 668.524 231.222L690.729 255.81C695.527 261.123 691.466 269.581 684.319 269.158L584.181 263.239C580.203 263.004 576.659 265.733 575.868 269.639L568.093 308.064C567.171 312.624 562.566 315.438 558.087 314.179L463.732 287.658C461.4 287.002 458.896 287.439 456.923 288.846L399.645 329.688C396.865 331.67 393.135 331.67 390.355 329.688L333.077 288.846C331.104 287.439 328.6 287.002 326.268 287.658L231.913 314.179C227.434 315.438 222.829 312.624 221.907 308.064L214.132 269.639C213.341 265.733 209.797 263.004 205.819 263.239L105.681 269.158C98.5344 269.581 94.4734 261.123 99.2712 255.81L121.476 231.222C125.789 226.446 122.984 218.791 116.607 217.932L40.0803 207.617C31.9278 206.518 30.5428 195.309 38.1826 192.259L84.0912 173.93C90.8027 171.25 90.8027 161.75 84.0912 159.07L38.1825 140.741C30.5427 137.691 31.9278 126.482 40.0803 125.383L116.607 115.068C122.984 114.209 125.789 106.554 121.476 101.778L99.2712 77.1895C94.4734 71.8766 98.5344 63.4194 105.681 63.8418L205.819 69.7606C209.797 69.9958 213.341 67.2671 214.132 63.3611L221.907 24.9357C222.829 20.3757 227.434 17.5618 231.913 18.8207L326.268 45.3422C328.6 45.9978 331.104 45.561 333.077 44.1543L390.355 3.31185Z" fill="#00FF0D"/>
<path d="M250.192 179H240.592L244.144 158.6H236.128L237.328 151.496L248.224 149H255.424L250.192 179ZM235.936 150.728L220.96 149H241.696L236.032 150.296L235.936 150.728ZM235.12 155.768L214.768 153.608H235.456L235.12 155.768ZM234.352 160.376L214 158.216H234.736L234.352 160.376ZM241.552 164.984L221.2 162.824H241.936L241.552 164.984ZM240.736 169.592L220.384 167.432H241.12L240.736 169.592ZM239.92 174.2L219.568 172.04H240.304L239.92 174.2ZM239.104 178.856L218.752 176.696H239.488L239.104 178.856ZM270.543 164.024C271.151 160.536 271.967 157.64 272.991 155.336C274.047 153 275.551 151.24 277.503 150.056C279.487 148.872 282.159 148.28 285.519 148.28C289.327 148.28 291.967 149.032 293.439 150.536C294.943 152.04 295.695 154.28 295.695 157.256C295.695 158.248 295.631 159.304 295.503 160.424C295.375 161.544 295.199 162.744 294.975 164.024C294.367 167.48 293.535 170.376 292.479 172.712C291.455 175.016 289.967 176.76 288.015 177.944C286.063 179.128 283.391 179.72 279.999 179.72C276.191 179.72 273.535 178.968 272.031 177.464C270.559 175.96 269.823 173.736 269.823 170.792C269.823 168.808 270.063 166.552 270.543 164.024ZM276.303 149C275.887 149.288 275.487 149.592 275.103 149.912C274.719 150.232 274.351 150.584 273.999 150.968L255.663 149H276.303ZM272.127 153.608C271.967 153.928 271.807 154.264 271.647 154.616C271.487 154.968 271.327 155.336 271.167 155.72L251.487 153.608H272.127ZM280.911 158.552L278.511 171.992H280.431C281.647 171.992 282.591 171.864 283.263 171.608C283.935 171.352 284.383 170.632 284.607 169.448L286.959 156.008H284.799C283.551 156.008 282.639 156.136 282.063 156.392C281.519 156.648 281.135 157.368 280.911 158.552ZM270.351 158.216L269.775 160.376L249.615 158.216H270.351ZM268.863 164.984L248.511 162.824H269.247L268.863 164.984ZM268.383 169.592L248.031 167.432H268.575C268.543 167.784 268.511 168.136 268.479 168.488C268.447 168.84 268.415 169.208 268.383 169.592ZM268.383 172.04C268.447 172.808 268.543 173.528 268.671 174.2L248.367 172.04H268.383ZM271.263 178.856L250.911 176.696H269.535C269.983 177.56 270.559 178.28 271.263 178.856ZM307.668 164.024C308.276 160.536 309.092 157.64 310.116 155.336C311.172 153 312.676 151.24 314.628 150.056C316.612 148.872 319.284 148.28 322.644 148.28C326.452 148.28 329.092 149.032 330.564 150.536C332.068 152.04 332.82 154.28 332.82 157.256C332.82 158.248 332.756 159.304 332.628 160.424C332.5 161.544 332.324 162.744 332.1 164.024C331.492 167.48 330.66 170.376 329.604 172.712C328.58 175.016 327.092 176.76 325.14 177.944C323.188 179.128 320.516 179.72 317.124 179.72C313.316 179.72 310.66 178.968 309.156 177.464C307.684 175.96 306.948 173.736 306.948 170.792C306.948 168.808 307.188 166.552 307.668 164.024ZM313.428 149C313.012 149.288 312.612 149.592 312.228 149.912C311.844 150.232 311.476 150.584 311.124 150.968L292.788 149H313.428ZM309.252 153.608C309.092 153.928 308.932 154.264 308.772 154.616C308.612 154.968 308.452 155.336 308.292 155.72L288.612 153.608H309.252ZM318.036 158.552L315.636 171.992H317.556C318.772 171.992 319.716 171.864 320.388 171.608C321.06 171.352 321.508 170.632 321.732 169.448L324.084 156.008H321.924C320.676 156.008 319.764 156.136 319.188 156.392C318.644 156.648 318.26 157.368 318.036 158.552ZM307.476 158.216L306.9 160.376L286.74 158.216H307.476ZM305.988 164.984L285.636 162.824H306.372L305.988 164.984ZM305.508 169.592L285.156 167.432H305.7C305.668 167.784 305.636 168.136 305.604 168.488C305.572 168.84 305.54 169.208 305.508 169.592ZM305.508 172.04C305.572 172.808 305.668 173.528 305.796 174.2L285.492 172.04H305.508ZM308.388 178.856L288.036 176.696H306.66C307.108 177.56 307.684 178.28 308.388 178.856ZM366.441 147.08L353.529 179.72C353.305 180.104 353.065 180.392 352.809 180.584C352.585 180.808 352.137 180.92 351.465 180.92H349.017L361.929 148.28C362.153 147.896 362.377 147.608 362.601 147.416C362.857 147.192 363.321 147.08 363.993 147.08H366.441ZM337.689 158.792C338.073 156.616 338.585 154.808 339.225 153.368C339.865 151.928 340.809 150.84 342.057 150.104C343.305 149.368 345.049 149 347.289 149C349.785 149 351.497 149.464 352.425 150.392C353.385 151.288 353.865 152.632 353.865 154.424C353.865 155.032 353.817 155.704 353.721 156.44C353.657 157.176 353.545 157.96 353.385 158.792C353.001 160.936 352.489 162.728 351.849 164.168C351.241 165.608 350.313 166.696 349.065 167.432C347.849 168.168 346.105 168.536 343.833 168.536C341.305 168.536 339.561 168.088 338.601 167.192C337.673 166.264 337.209 164.888 337.209 163.064C337.209 162.456 337.257 161.8 337.353 161.096C337.449 160.36 337.561 159.592 337.689 158.792ZM344.649 154.952L343.113 163.688H343.977C344.617 163.688 345.161 163.624 345.609 163.496C346.057 163.368 346.329 163.048 346.425 162.536L347.961 153.848H347.001C346.393 153.848 345.865 153.912 345.417 154.04C345.001 154.136 344.745 154.44 344.649 154.952ZM361.785 169.688C362.169 167.512 362.681 165.704 363.321 164.264C363.961 162.824 364.905 161.736 366.153 161C367.401 160.264 369.145 159.896 371.385 159.896C373.881 159.896 375.593 160.36 376.521 161.288C377.481 162.184 377.961 163.528 377.961 165.32C377.961 165.928 377.913 166.6 377.817 167.336C377.753 168.072 377.641 168.856 377.481 169.688C377.097 171.832 376.585 173.624 375.945 175.064C375.337 176.504 374.409 177.592 373.161 178.328C371.945 179.064 370.201 179.432 367.929 179.432C365.401 179.432 363.657 178.984 362.697 178.088C361.769 177.16 361.305 175.784 361.305 173.96C361.305 173.352 361.353 172.696 361.449 171.992C361.545 171.256 361.657 170.488 361.785 169.688ZM368.745 165.848L367.209 174.584H368.073C368.713 174.584 369.257 174.52 369.705 174.392C370.153 174.264 370.425 173.944 370.521 173.432L372.057 164.744H371.097C370.489 164.744 369.961 164.808 369.513 164.936C369.097 165.032 368.841 165.336 368.745 165.848ZM402.628 179V153.608H411.364V167.336H411.604L416.98 153.608H424.276V167.336H424.468L428.884 153.608H438.052L428.692 179H418.276L417.556 170.024H417.22L413.524 179H402.628ZM401.044 155.768L382.18 153.608H401.044V155.768ZM401.044 160.376L382.18 158.216H401.044V160.376ZM401.044 164.984L382.18 162.824H401.044V164.984ZM401.044 169.592L382.18 167.432H401.044V169.592ZM401.044 174.2L382.18 172.04H401.044V174.2ZM401.044 178.856L382.18 176.696H401.044V178.856ZM456.292 179.576C452.804 179.576 450.356 178.904 448.948 177.56C447.572 176.184 446.884 174.136 446.884 171.416C446.884 170.68 446.932 169.88 447.028 169.016C447.124 168.152 447.252 167.256 447.412 166.328C447.924 163.384 448.676 160.936 449.668 158.984C450.66 157.032 452.052 155.576 453.844 154.616C455.636 153.624 458.004 153.128 460.948 153.128C464.468 153.128 466.948 153.816 468.388 155.192C469.828 156.536 470.548 158.584 470.548 161.336C470.548 162.04 470.5 162.824 470.404 163.688C470.308 164.52 470.18 165.4 470.02 166.328C469.508 169.24 468.756 171.688 467.764 173.672C466.772 175.624 465.364 177.096 463.54 178.088C461.716 179.08 459.3 179.576 456.292 179.576ZM450.532 155.192L435.796 153.608H452.5C451.732 154.056 451.076 154.584 450.532 155.192ZM447.508 160.136L429.364 158.216H448.324C448.196 158.536 448.052 158.856 447.892 159.176C447.764 159.464 447.636 159.784 447.508 160.136ZM454.852 172.28H457.684C458.516 172.28 459.188 172.184 459.7 171.992C460.244 171.8 460.58 171.288 460.708 170.456L462.532 160.424H459.604C458.836 160.424 458.18 160.52 457.636 160.712C457.092 160.904 456.756 161.4 456.628 162.2L454.852 172.28ZM446.212 164.84L427.444 162.824H446.644L446.212 164.84ZM445.492 169.448L426.58 167.432H445.732C445.7 167.784 445.652 168.136 445.588 168.488C445.556 168.808 445.524 169.128 445.492 169.448ZM445.636 174.056L426.772 172.04H445.444C445.444 172.392 445.46 172.744 445.492 173.096C445.556 173.416 445.604 173.736 445.636 174.056ZM447.7 178.472L430.948 176.696H446.452C446.612 177.016 446.788 177.336 446.98 177.656C447.204 177.944 447.444 178.216 447.7 178.472ZM482.73 179L487.146 153.608H499.338C501.13 153.608 502.522 153.88 503.514 154.424C504.538 154.968 505.258 155.72 505.674 156.68C506.122 157.64 506.346 158.728 506.346 159.944C506.346 160.904 506.202 162.072 505.914 163.448C505.658 164.824 505.162 166.168 504.426 167.48C503.722 168.76 502.682 169.784 501.306 170.552L504.042 179H495.066L493.242 171.608H492.09L490.794 179H482.73ZM485.226 155.768L464.873 153.608H485.562L485.226 155.768ZM484.41 160.376L464.057 158.216H484.794L484.41 160.376ZM493.242 165.032H494.778C495.418 165.032 495.962 164.952 496.41 164.792C496.89 164.6 497.178 164.2 497.274 163.592L497.562 161.912C497.562 161.848 497.562 161.8 497.562 161.768C497.594 161.704 497.609 161.656 497.609 161.624C497.609 161.176 497.37 160.904 496.89 160.808C496.442 160.68 495.834 160.616 495.066 160.616H494.01L493.242 165.032ZM483.594 164.984L463.241 162.824H483.978L483.594 164.984ZM482.778 169.592L462.425 167.432H483.162L482.778 169.592ZM481.962 174.2L461.609 172.04H482.346L481.962 174.2ZM481.146 178.856L460.793 176.696H481.53L481.146 178.856ZM517.323 179L521.739 153.608H529.851L528.459 161.384H528.699L533.643 153.608H542.427L534.363 166.04L538.155 179H529.371L527.115 170.696H526.827L525.387 179H517.323ZM519.819 155.768L499.467 153.608H520.155L519.819 155.768ZM519.003 160.376L498.651 158.216H519.387L519.003 160.376ZM518.187 164.984L497.835 162.824H518.571L518.187 164.984ZM517.371 169.592L497.019 167.432H517.755L517.371 169.592ZM516.555 174.2L496.203 172.04H516.939L516.555 174.2ZM515.739 178.856L495.387 176.696H516.123L515.739 178.856ZM560.44 179.576C558.936 179.576 557.4 179.496 555.832 179.336C554.296 179.176 552.776 178.888 551.272 178.472L553.624 171.368C556.12 172.072 558.52 172.424 560.824 172.424C561.4 172.424 561.944 172.424 562.456 172.424C563 172.392 563.56 172.344 564.136 172.28L564.376 170.744L561.352 170.408C558.696 170.12 556.84 169.496 555.784 168.536C554.728 167.576 554.2 166.264 554.2 164.6C554.2 164.248 554.216 163.864 554.248 163.448C554.312 163.032 554.376 162.616 554.44 162.2C554.856 159.896 555.48 158.088 556.312 156.776C557.176 155.464 558.376 154.536 559.912 153.992C561.48 153.416 563.528 153.128 566.056 153.128C569.096 153.128 571.96 153.464 574.648 154.136L572.344 161.144C571.224 160.888 570.2 160.696 569.272 160.568C568.344 160.44 567.336 160.376 566.248 160.376C565.64 160.376 565.144 160.392 564.76 160.424C564.376 160.424 563.912 160.456 563.368 160.52L563.128 161.912L565.528 162.2C568.344 162.52 570.328 163.24 571.48 164.36C572.664 165.48 573.256 166.888 573.256 168.584C573.256 168.872 573.24 169.176 573.208 169.496C573.176 169.816 573.128 170.136 573.064 170.456C572.68 172.664 572.072 174.392 571.24 175.64C570.408 176.888 569.416 177.8 568.264 178.376C567.112 178.92 565.864 179.256 564.52 179.384C563.176 179.512 561.816 179.576 560.44 179.576ZM555.304 155.624L536.584 153.608H557.272C556.888 153.896 556.52 154.2 556.168 154.52C555.848 154.84 555.56 155.208 555.304 155.624ZM553.336 160.376L533.272 158.216H553.96C553.832 158.536 553.72 158.888 553.624 159.272C553.528 159.624 553.432 159.992 553.336 160.376ZM552.76 164.984L532.408 162.824H552.856C552.824 163.112 552.792 163.416 552.76 163.736C552.76 164.024 552.76 164.312 552.76 164.6V164.984ZM554.584 169.592L534.28 167.432H553.192C553.48 168.264 553.944 168.984 554.584 169.592ZM551.176 174.152L531.16 172.04H551.848L551.176 174.152ZM549.64 178.856L529.576 176.696H550.312L549.64 178.856Z" fill="black"/>
</svg>
