<svg width="368" height="226" viewBox="0 0 368 226" fill="none" xmlns="http://www.w3.org/2000/svg">
<path d="M178.236 5.98779C181.383 2.71841 186.617 2.71841 189.764 5.98779L210.531 27.5623C212.805 29.9251 216.291 30.6604 219.326 29.4176L254.297 15.0965C259.13 13.117 264.534 16.2255 265.252 21.3993L267.85 40.1017C268.435 44.3176 272.219 47.3369 276.46 46.9717L311.97 43.9137C318.528 43.349 322.924 50.5041 319.456 56.0989L312.772 66.8836C309.825 71.6376 312.542 77.8706 318.03 78.9483L342.555 83.7644C349.796 85.1863 351.415 94.8192 345.036 98.5296L332.048 106.085C326.745 109.17 326.745 116.83 332.048 119.915L345.036 127.47C351.415 131.181 349.796 140.814 342.555 142.236L318.03 147.052C312.542 148.129 309.825 154.362 312.772 159.116L319.456 169.901C322.924 175.496 318.528 182.651 311.97 182.086L276.46 179.028C272.219 178.663 268.435 181.682 267.85 185.898L265.252 204.601C264.534 209.775 259.13 212.883 254.297 210.904L219.326 196.582C216.291 195.34 212.805 196.075 210.531 198.438L189.764 220.012C186.617 223.282 181.383 223.282 178.236 220.012L157.469 198.438C155.195 196.075 151.709 195.34 148.674 196.582L113.703 210.904C108.87 212.883 103.466 209.774 102.748 204.601L100.15 185.898C99.5647 181.682 95.7806 178.663 91.5399 179.028L56.0297 182.086C49.4717 182.651 45.0758 175.496 48.5435 169.901L55.2281 159.116C58.1747 154.362 55.4582 148.129 49.9699 147.052L25.4448 142.236C18.2038 140.814 16.5852 131.181 22.9638 127.47L35.9521 119.915C41.2554 116.83 41.2554 109.17 35.9521 106.085L22.9638 98.5296C16.5852 94.8192 18.2038 85.1863 25.4448 83.7644L49.9699 78.9483C55.4582 77.8706 58.1747 71.6376 55.2281 66.8836L48.5436 56.0989C45.0758 50.5041 49.4717 43.349 56.0297 43.9137L91.5399 46.9717C95.7806 47.3369 99.5647 44.3176 100.15 40.1017L102.748 21.3993C103.466 16.2255 108.87 13.117 113.703 15.0965L148.674 29.4176C151.709 30.6605 155.195 29.9251 157.469 27.5623L178.236 5.98779Z" fill="#00FF0D"/>
<path d="M105.792 113L110.208 87.608H118.656L115.44 105.944H122.64L121.392 113H105.792ZM108.288 89.768L87.936 87.608H108.624L108.288 89.768ZM107.472 94.376L87.12 92.216H107.856L107.472 94.376ZM106.656 98.984L86.304 96.824H107.04L106.656 98.984ZM105.84 103.592L85.488 101.432H106.224L105.84 103.592ZM105.024 108.2L84.672 106.04H105.408L105.024 108.2ZM104.208 112.856L83.856 110.696H104.592L104.208 112.856ZM133.026 113L137.442 87.608H145.89L141.426 113H133.026ZM135.522 89.768L115.17 87.608H135.858L135.522 89.768ZM134.706 94.376L114.354 92.216H135.09L134.706 94.376ZM133.89 98.984L113.538 96.824H134.274L133.89 98.984ZM133.074 103.592L112.722 101.432H133.458L133.074 103.592ZM132.258 108.2L111.906 106.04H132.642L132.258 108.2ZM131.442 112.856L111.09 110.696H131.826L131.442 112.856ZM156.511 113L160.927 87.608H167.455L172.447 97.064H172.735L174.367 87.608H182.383L177.919 113H171.391L166.447 103.496H166.255L164.575 113H156.511ZM159.007 89.768L138.655 87.608H159.343L159.007 89.768ZM158.191 94.376L137.839 92.216H158.575L158.191 94.376ZM157.375 98.984L137.023 96.824H157.759L157.375 98.984ZM156.559 103.592L136.207 101.432H156.943L156.559 103.592ZM155.743 108.2L135.391 106.04H156.127L155.743 108.2ZM154.927 112.856L134.575 110.696H155.311L154.927 112.856ZM193.401 113L197.817 87.608H205.929L204.537 95.384H204.777L209.721 87.608H218.505L210.441 100.04L214.233 113H205.449L203.193 104.696H202.905L201.465 113H193.401ZM195.897 89.768L175.545 87.608H196.233L195.897 89.768ZM195.081 94.376L174.729 92.216H195.465L195.081 94.376ZM194.265 98.984L173.913 96.824H194.649L194.265 98.984ZM193.449 103.592L173.097 101.432H193.833L193.449 103.592ZM192.633 108.2L172.281 106.04H193.017L192.633 108.2ZM191.817 112.856L171.465 110.696H192.201L191.817 112.856ZM236.48 113L240.896 87.608H249.344L244.88 113H236.48ZM238.976 89.768L218.623 87.608H239.312L238.976 89.768ZM238.16 94.376L217.807 92.216H238.544L238.16 94.376ZM237.344 98.984L216.991 96.824H237.728L237.344 98.984ZM236.528 103.592L216.175 101.432H236.912L236.528 103.592ZM235.712 108.2L215.359 106.04H236.096L235.712 108.2ZM234.896 112.856L214.543 110.696H235.28L234.896 112.856ZM259.964 113L264.38 87.608H270.908L275.9 97.064H276.188L277.82 87.608H285.836L281.372 113H274.844L269.9 103.496H269.708L268.028 113H259.964ZM262.46 89.768L242.108 87.608H262.796L262.46 89.768ZM261.644 94.376L241.292 92.216H262.028L261.644 94.376ZM260.828 98.984L240.476 96.824H261.212L260.828 98.984ZM260.012 103.592L239.66 101.432H260.396L260.012 103.592ZM259.196 108.2L238.844 106.04H259.58L259.196 108.2ZM258.38 112.856L238.028 110.696H258.764L258.38 112.856ZM105.792 164L110.208 138.608H123.168C125.152 138.608 126.56 139.024 127.392 139.856C128.224 140.656 128.64 141.744 128.64 143.12C128.64 144.848 128.24 146.368 127.44 147.68C126.64 148.992 125.696 149.904 124.608 150.416L124.56 150.704C125.68 151.056 126.48 151.616 126.96 152.384C127.472 153.152 127.728 154.048 127.728 155.072C127.728 157.792 126.992 159.968 125.52 161.6C124.048 163.2 121.728 164 118.56 164H105.792ZM108.336 140.768L87.984 138.608H108.672L108.336 140.768ZM107.52 145.376L87.168 143.216H107.904L107.52 145.376ZM116.688 147.776H119.328C119.872 147.776 120.24 147.552 120.432 147.104C120.656 146.656 120.768 146.176 120.768 145.664C120.768 145.376 120.704 145.152 120.576 144.992C120.448 144.8 120.192 144.704 119.808 144.704H117.216L116.688 147.776ZM106.704 149.984L86.352 147.824H107.088L106.704 149.984ZM105.888 154.592L85.536 152.432H106.272L105.888 154.592ZM114.96 157.712H117.936C118.576 157.712 119.008 157.456 119.232 156.944C119.488 156.432 119.616 155.872 119.616 155.264C119.616 154.912 119.536 154.64 119.376 154.448C119.248 154.256 118.976 154.16 118.56 154.16H115.584L114.96 157.712ZM105.072 159.2L84.72 157.04H105.456L105.072 159.2ZM104.256 163.856L83.904 161.696H104.64L104.256 163.856ZM140.058 164L144.474 138.608H152.922L148.458 164H140.058ZM142.554 140.768L122.202 138.608H142.89L142.554 140.768ZM141.738 145.376L121.386 143.216H142.122L141.738 145.376ZM140.922 149.984L120.57 147.824H141.306L140.922 149.984ZM140.106 154.592L119.754 152.432H140.49L140.106 154.592ZM139.29 159.2L118.938 157.04H139.674L139.29 159.2ZM138.474 163.856L118.122 161.696H138.858L138.474 163.856ZM173.526 164.576C170.038 164.576 167.59 163.904 166.182 162.56C164.806 161.184 164.118 159.136 164.118 156.416C164.118 155.68 164.166 154.88 164.262 154.016C164.358 153.152 164.486 152.256 164.646 151.328C165.158 148.384 165.91 145.936 166.902 143.984C167.894 142.032 169.286 140.576 171.078 139.616C172.87 138.624 175.238 138.128 178.182 138.128C181.702 138.128 184.182 138.816 185.622 140.192C187.062 141.536 187.782 143.584 187.782 146.336C187.782 147.04 187.734 147.824 187.638 148.688C187.542 149.52 187.414 150.4 187.254 151.328C186.742 154.24 185.99 156.688 184.998 158.672C184.006 160.624 182.598 162.096 180.774 163.088C178.95 164.08 176.534 164.576 173.526 164.576ZM167.766 140.192L153.03 138.608H169.734C168.966 139.056 168.31 139.584 167.766 140.192ZM164.742 145.136L146.598 143.216H165.558C165.43 143.536 165.286 143.856 165.126 144.176C164.998 144.464 164.87 144.784 164.742 145.136ZM172.086 157.28H174.918C175.75 157.28 176.422 157.184 176.934 156.992C177.478 156.8 177.814 156.288 177.942 155.456L179.766 145.424H176.838C176.07 145.424 175.414 145.52 174.87 145.712C174.326 145.904 173.99 146.4 173.862 147.2L172.086 157.28ZM163.446 149.84L144.678 147.824H163.878L163.446 149.84ZM162.726 154.448L143.814 152.432H162.966C162.934 152.784 162.886 153.136 162.822 153.488C162.79 153.808 162.758 154.128 162.726 154.448ZM162.87 159.056L144.006 157.04H162.678C162.678 157.392 162.694 157.744 162.726 158.096C162.79 158.416 162.838 158.736 162.87 159.056ZM164.934 163.472L148.182 161.696H163.686C163.846 162.016 164.022 162.336 164.214 162.656C164.438 162.944 164.678 163.216 164.934 163.472Z" fill="black"/>
</svg>
