<svg width="405" height="1004" viewBox="0 0 405 1004" fill="none" xmlns="http://www.w3.org/2000/svg">
<rect width="405" height="1004" fill="#D9D9D9"/>
<rect x="58" y="878" width="287" height="95" fill="#BE0000"/>
<path d="M107.25 934.416C105.483 934.416 103.871 933.792 103.118 933.142V930.023H104.131C104.209 932.285 105.769 933.116 107.432 933.116C108.94 933.116 109.771 932.415 109.771 931.271C109.771 930.517 109.407 930.075 108.238 929.634L106.185 928.88C104.235 928.152 103.352 926.956 103.352 925.475C103.352 923.292 105.171 921.81 107.926 921.81C109.173 921.81 110.499 922.096 111.539 922.642V925.657H110.525C110.525 923.838 109.147 923.11 107.692 923.11C106.47 923.11 105.613 923.604 105.613 924.643C105.613 925.319 105.951 925.813 107.25 926.281L109.277 926.982C111.123 927.658 111.954 928.828 111.954 930.387C111.954 932.7 110.161 934.416 107.25 934.416ZM118.707 934.416C116.576 934.416 115.224 933.22 115.224 931.037V923.552H113.379V922.408C113.691 922.356 113.951 922.278 114.211 922.148C115.042 921.732 115.38 920.979 115.38 919.731V918.951H117.927V922.018H122.034V923.552H117.927V930.179C117.927 931.505 118.499 932.415 119.747 932.415C120.786 932.415 121.514 931.843 121.748 930.725H122.632C122.476 932.934 121.046 934.416 118.707 934.416ZM126.999 934.416C125.101 934.416 123.724 933.22 123.724 931.453C123.724 929.763 125.023 928.516 127.077 928.152L130.793 927.528V925.449C130.793 923.734 130.196 922.902 128.818 922.902C127.752 922.902 126.973 923.396 126.973 924.435C126.973 924.721 127.077 925.059 127.077 925.293C127.077 926.125 126.609 926.697 125.647 926.697C124.79 926.697 124.218 926.203 124.218 925.163C124.218 923.214 126.297 921.81 129.078 921.81C131.781 921.81 133.47 923.162 133.444 925.189L133.392 931.011C133.366 931.947 133.704 932.467 134.38 932.467C135.056 932.467 135.42 931.947 135.524 931.141H136.225C136.225 932.908 135.238 934.416 133.341 934.416C132.015 934.416 131.001 933.662 131.001 932.129V931.947H130.923C130.533 933.09 129.052 934.416 126.999 934.416ZM126.453 931.063C126.453 932.207 127.259 932.674 128.194 932.674C129.78 932.674 130.793 931.375 130.793 929.997V928.542L128.584 929.01C127.285 929.27 126.453 929.945 126.453 931.063ZM136.94 934V933.038H137.564C138.343 933.038 138.759 932.752 138.759 931.895V924.227C138.759 923.292 138.395 922.98 137.486 922.98H137.044V922.018H141.254L141.462 924.279H141.54C142.294 922.798 143.775 921.81 145.075 921.81C146.271 921.81 147.102 922.46 147.102 923.448C147.102 924.409 146.349 925.007 145.517 925.007C144.477 925.007 144.139 924.149 143.308 924.149C142.554 924.149 141.462 925.033 141.462 927.32V931.843C141.462 932.726 141.93 933.038 142.84 933.038H143.671V934H136.94ZM152.922 934.416C150.79 934.416 149.439 933.22 149.439 931.037V923.552H147.593V922.408C147.905 922.356 148.165 922.278 148.425 922.148C149.257 921.732 149.595 920.979 149.595 919.731V918.951H152.142V922.018H156.248V923.552H152.142V930.179C152.142 931.505 152.714 932.415 153.961 932.415C155.001 932.415 155.729 931.843 155.962 930.725H156.846C156.69 932.934 155.261 934.416 152.922 934.416ZM168.538 934.416C165.627 934.416 163.548 931.947 163.548 928.386C163.548 924.227 166.537 921.81 169.682 921.81C170.825 921.81 171.813 922.148 172.567 922.694V917.366C172.567 916.508 172.307 916.222 171.475 916.222H170.591V915.261H177.063V916.222H176.361C175.53 916.222 175.27 916.508 175.27 917.366V931.895C175.27 932.726 175.685 933.038 176.517 933.038H177.063V934H172.619V932.415H172.541C171.735 933.558 170.331 934.416 168.538 934.416ZM166.355 927.84C166.355 930.855 167.966 932.493 169.89 932.493C171.007 932.493 171.943 932.025 172.567 931.193V925.839C172.567 923.864 171.163 923.214 169.838 923.214C167.888 923.214 166.355 924.773 166.355 927.84ZM184.576 934.416C181.354 934.416 178.624 931.947 178.624 928.282C178.624 924.591 181.535 921.81 184.888 921.81C188.111 921.81 190.84 924.279 190.84 927.97C190.84 931.635 187.929 934.416 184.576 934.416ZM181.613 928.074C181.613 931.245 182.679 933.116 184.68 933.116C186.708 933.116 187.851 931.193 187.851 928.152C187.851 924.955 186.786 923.11 184.784 923.11C182.783 923.11 181.613 925.033 181.613 928.074ZM200.88 923.89C200.594 923.162 200.283 922.98 199.789 922.98H199.243V922.018H205.325V922.98H204.311C203.583 922.98 203.427 923.448 203.713 924.175L206.131 930.595H206.26L209.042 924.175C209.353 923.448 209.171 922.98 208.366 922.98H207.482V922.018H212.628V922.98H212.16C211.407 922.98 211.043 923.37 210.705 924.149L206.39 934.104H204.831L202.128 927.138L199.061 934.104H197.528L193.109 923.89C192.797 923.162 192.485 922.98 191.732 922.98H191.29V922.018H197.632V922.98H196.774C196.046 922.98 195.864 923.448 196.176 924.175L198.879 930.595H199.035L201.4 925.241L200.88 923.89ZM213.11 934V933.038H213.734C214.514 933.038 214.93 932.752 214.93 931.895V924.227C214.93 923.292 214.566 922.98 213.656 922.98H213.214V922.018H217.425L217.607 923.994H217.685C218.386 922.746 219.868 921.81 221.609 921.81C223.845 921.81 225.404 923.344 225.404 925.397V931.895C225.404 932.726 225.742 933.038 226.652 933.038H227.041V934H220.908V933.038H221.401C222.259 933.038 222.701 932.752 222.701 931.895V926.229C222.701 924.461 221.635 923.76 220.388 923.76C219.036 923.76 217.633 924.825 217.633 926.671V931.895C217.633 932.726 218.075 933.038 218.958 933.038H219.452V934H213.11ZM228.162 934V933.038H228.655C229.513 933.038 229.929 932.726 229.929 931.895V917.366C229.929 916.508 229.669 916.222 228.837 916.222H228.136V915.261H234.425V916.222H233.724C232.892 916.222 232.632 916.508 232.632 917.366V931.895C232.632 932.726 233.048 933.038 233.906 933.038H234.399V934H228.162ZM241.939 934.416C238.716 934.416 235.987 931.947 235.987 928.282C235.987 924.591 238.898 921.81 242.251 921.81C245.474 921.81 248.203 924.279 248.203 927.97C248.203 931.635 245.292 934.416 241.939 934.416ZM238.976 928.074C238.976 931.245 240.042 933.116 242.043 933.116C244.07 933.116 245.214 931.193 245.214 928.152C245.214 924.955 244.148 923.11 242.147 923.11C240.146 923.11 238.976 925.033 238.976 928.074ZM253.4 934.416C251.502 934.416 250.125 933.22 250.125 931.453C250.125 929.763 251.424 928.516 253.478 928.152L257.194 927.528V925.449C257.194 923.734 256.596 922.902 255.219 922.902C254.153 922.902 253.374 923.396 253.374 924.435C253.374 924.721 253.478 925.059 253.478 925.293C253.478 926.125 253.01 926.697 252.048 926.697C251.19 926.697 250.619 926.203 250.619 925.163C250.619 923.214 252.698 921.81 255.479 921.81C258.182 921.81 259.871 923.162 259.845 925.189L259.793 931.011C259.767 931.947 260.105 932.467 260.781 932.467C261.457 932.467 261.821 931.947 261.925 931.141H262.626C262.626 932.908 261.639 934.416 259.741 934.416C258.416 934.416 257.402 933.662 257.402 932.129V931.947H257.324C256.934 933.09 255.453 934.416 253.4 934.416ZM252.854 931.063C252.854 932.207 253.659 932.674 254.595 932.674C256.181 932.674 257.194 931.375 257.194 929.997V928.542L254.985 929.01C253.685 929.27 252.854 929.945 252.854 931.063ZM268.669 934.416C265.758 934.416 263.679 931.947 263.679 928.386C263.679 924.227 266.667 921.81 269.812 921.81C270.956 921.81 271.944 922.148 272.697 922.694V917.366C272.697 916.508 272.437 916.222 271.606 916.222H270.722V915.261H277.194V916.222H276.492C275.66 916.222 275.4 916.508 275.4 917.366V931.895C275.4 932.726 275.816 933.038 276.648 933.038H277.194V934H272.749V932.415H272.671C271.866 933.558 270.462 934.416 268.669 934.416ZM266.486 927.84C266.486 930.855 268.097 932.493 270.02 932.493C271.138 932.493 272.074 932.025 272.697 931.193V925.839C272.697 923.864 271.294 923.214 269.968 923.214C268.019 923.214 266.486 924.773 266.486 927.84Z" fill="black"/>
<line x1="329.763" y1="79.7299" x2="381.172" y2="28.3204" stroke="black" stroke-width="3"/>
<line x1="381.172" y1="81.8509" x2="329.763" y2="30.4415" stroke="black" stroke-width="3"/>
</svg>
